<?xml version="1.0" standalone="no"?>
<!DOCTYPE svg PUBLIC "-//W3C//DTD SVG 20010904//EN"
 "http://www.w3.org/TR/2001/REC-SVG-20010904/DTD/svg10.dtd">
<svg version="1.0" xmlns="http://www.w3.org/2000/svg"
 width="16.000000pt" height="16.000000pt" viewBox="0 0 16.000000 16.000000"
 preserveAspectRatio="xMidYMid meet">
<metadata>
Created by potrace 1.11, written by Peter Selinger 2001-2013
</metadata>
<g transform="translate(0.000000,16.000000) scale(0.002680,-0.002680)"
fill="#000000" stroke="none">
<path d="M2895 5919 c-27 -10 -71 -39 -96 -63 -42 -39 -53 -44 -106 -48 -79
-5 -141 -38 -178 -92 -24 -36 -38 -47 -75 -56 -47 -12 -117 -49 -144 -75 -9
-9 -20 -33 -26 -54 l-10 -39 -73 30 c-68 28 -78 30 -167 24 -105 -6 -115 -7
-179 -30 -42 -16 -45 -15 -66 4 -11 11 -36 23 -55 26 -19 4 -42 11 -51 15 -26
13 -124 -25 -162 -64 -62 -61 -70 -137 -27 -233 11 -23 20 -63 20 -88 l0 -46
-57 0 c-78 0 -135 -19 -184 -60 -56 -46 -87 -98 -90 -151 -3 -55 -8 -69 -23
-69 -6 0 -23 -7 -38 -15 -16 -8 -40 -22 -55 -30 -36 -19 -166 -147 -208 -205
-69 -95 -93 -281 -55 -431 28 -111 49 -167 75 -204 41 -57 46 -88 21 -137 -12
-23 -23 -61 -24 -84 -4 -48 26 -129 69 -189 29 -40 30 -44 18 -88 -11 -47 -8
-261 5 -321 9 -38 34 -87 57 -109 23 -21 24 -63 4 -104 -9 -17 -18 -74 -21
-136 -6 -95 -5 -111 16 -164 22 -54 92 -149 150 -201 47 -42 109 -72 192 -93
46 -11 84 -22 86 -23 1 -2 11 -34 21 -72 11 -38 29 -96 41 -128 21 -58 21 -61
4 -123 -13 -48 -15 -69 -6 -86 6 -12 20 -44 31 -70 l20 -48 -43 -67 c-23 -37
-46 -75 -49 -84 -5 -14 -18 -18 -61 -18 -61 0 -91 -9 -121 -36 -30 -27 -65
-80 -70 -104 -2 -11 -7 -25 -10 -30 -13 -22 52 -179 90 -217 8 -8 15 -19 15
-26 0 -6 11 -23 25 -37 24 -26 25 -28 11 -67 -19 -54 -6 -115 39 -178 11 -16
27 -43 35 -60 29 -60 178 -207 270 -266 37 -24 77 -58 89 -75 12 -16 31 -41
43 -54 13 -14 22 -28 20 -33 -1 -5 2 -6 7 -3 5 4 11 3 13 -2 6 -15 136 -120
157 -127 12 -3 21 -11 21 -16 0 -5 5 -9 11 -9 6 0 23 -9 38 -19 105 -75 386
-179 581 -215 181 -34 205 -36 340 -37 128 0 215 10 375 45 46 9 109 28 124
36 9 5 45 21 81 36 91 37 216 115 286 179 32 30 73 64 90 76 49 35 81 92 83
151 1 12 25 24 83 43 45 15 94 36 109 48 14 12 39 31 54 42 15 11 31 22 34 25
4 3 27 32 52 65 49 64 67 107 71 168 2 32 8 42 50 70 26 17 48 37 48 43 0 6
11 20 25 32 38 33 123 212 125 264 7 118 4 128 -51 179 -32 29 -65 50 -88 55
-20 4 -41 8 -47 10 -7 1 -36 -4 -66 -11 l-54 -12 0 63 c1 38 -4 68 -11 75 -22
22 -14 47 22 69 39 24 56 70 56 148 0 56 -6 89 -23 120 -9 18 -8 36 6 91 13
49 16 86 11 128 l-6 60 85 6 c106 9 154 30 233 104 129 121 168 278 119 477
l-18 68 26 27 c14 15 26 32 26 39 0 6 11 32 25 57 14 25 23 45 21 45 -3 0 2
19 10 43 29 80 39 163 25 212 -8 31 -6 36 33 73 22 22 56 65 75 97 31 51 34
64 34 128 -1 75 -23 147 -46 147 -8 0 -7 4 3 10 9 6 10 10 3 10 -13 0 17 101
37 125 5 6 11 33 11 59 1 26 6 49 11 52 4 3 4 14 -2 24 -6 11 -6 20 -1 22 6 2
12 15 15 31 3 15 1 25 -4 22 -4 -3 -11 2 -14 11 -3 8 -2 13 3 10 5 -3 12 1 15
9 3 10 -1 18 -11 22 -15 6 -14 7 3 14 13 5 14 8 4 8 -12 1 -16 17 -17 73 -2
39 -7 76 -13 82 -5 5 -10 20 -10 33 0 41 -119 194 -188 240 -18 13 -20 18 -10
25 10 8 9 9 -3 5 -33 -11 -75 28 -88 79 -15 58 -76 134 -135 169 -68 40 -152
65 -197 59 l-39 -6 -1 66 c-1 36 -2 72 -3 79 -1 6 7 28 16 47 43 84 5 171
-109 248 -25 18 -46 22 -102 22 -39 0 -71 -4 -71 -9 0 -5 -16 -16 -36 -26 -35
-17 -38 -16 -113 9 -94 31 -210 43 -270 26 l-43 -11 -52 53 c-64 68 -100 93
-153 107 -35 10 -43 17 -54 48 -13 41 -79 112 -122 131 -15 6 -52 12 -81 12
-50 0 -57 3 -107 49 -43 39 -65 51 -108 60 -73 15 -97 13 -156 -10z m-876
-4227 c28 -46 51 -90 51 -98 0 -9 -19 1 -52 27 -88 69 -148 122 -148 131 0 4
11 10 25 14 13 3 30 12 36 20 16 19 22 12 88 -94z m1947 67 c21 -20 21 -22 6
-49 -9 -15 -48 -49 -86 -76 -54 -36 -67 -42 -53 -24 9 14 34 58 54 98 21 39
42 72 47 72 5 0 20 -9 32 -21z m-1690 -471 c-24 -16 -46 -8 -46 16 0 13 -3 33
-6 43 -4 11 7 5 28 -17 23 -23 31 -38 24 -42z"/>
</g>
</svg>
